# xmcd
#
# Track frame offsets: 
#        150
#        21020
#        43649
#        66905
#        89527
#        111266
#        132491
#        155326
#
# Disc length: 2460 seconds
#
# Revision: 0
# Processed by: cddbd v1.5.2PL0 Copyright (c) Steve Scherf et al.
# Submitted via: ExactAudioCopy v0.99pb5
#
DISCID=69099a08
DTITLE=Saiko - HAPPY
DYEAR=2009
DGENRE=House
TTITLE0=MELT YOU DOWN
TTITLE1=ALIVE
TTITLE2=SATELLITE
TTITLE3=UNDONE
TTITLE4=100WORDS
TTITLE5=NEVER DIE
TTITLE6=HAPPY
TTITLE7=MELT YOU DOWN (ANANDA PROJECT REMIX)
EXTD=
EXTT0=
EXTT1=
EXTT2=
EXTT3=
EXTT4=
EXTT5=
EXTT6=
EXTT7=
PLAYORDER=
